<?xml version="1.0" encoding="utf-8"?>
<!-- Generator: Adobe Illustrator 25.0.0, SVG Export Plug-In . SVG Version: 6.00 Build 0)  -->
<svg version="1.1" id="레이어_1" xmlns="http://www.w3.org/2000/svg" xmlns:xlink="http://www.w3.org/1999/xlink" x="0px"
	 y="0px" viewBox="0 0 60 60" style="enable-background:new 0 0 60 60;" xml:space="preserve">
<style type="text/css">
	.st0{fill:#175D7D;}
</style>
<g>
	<path class="st0" d="M45.6,36c0-1.6-1.7-3-4.8-4.1c-2.9-1-6.8-1.5-11-1.5s-8,0.5-11,1.5C15.7,33,14,34.4,14,36c0,0.7,0.3,1.4,1,2
		l0,0c0,0,2.4,2.6,2.4,4.8v5.1c0,1.2,1.3,2.2,3.8,2.9c2.3,0.7,5.3,1,8.5,1s6.3-0.4,8.5-1c2.5-0.7,3.8-1.7,3.8-2.9v-5.1
		c0-2.2,2.4-4.7,2.4-4.8l0,0C45.3,37.4,45.6,36.7,45.6,36z M19.2,32.9c2.8-0.9,6.6-1.5,10.7-1.5c4,0,7.8,0.5,10.7,1.5
		c2.6,0.9,4.1,2,4.1,3.1s-1.5,2.2-4,3.1c-2.1-1.2-6.2-1.9-10.8-1.9s-8.6,0.7-10.8,1.9c-2.5-0.9-4-2-4-3.1
		C15,34.9,16.6,33.8,19.2,32.9z M41.2,42.8v5.1c0,1.2-4.3,2.9-11.4,2.9s-11.4-1.7-11.4-2.9v-5.1c0-1.2-0.5-2.3-1.1-3.3
		c0.5,0.2,1,0.4,1.5,0.6c2.9,1,6.8,1.5,11,1.5s8-0.5,11-1.5c0.5-0.2,1-0.4,1.5-0.6C41.7,40.5,41.2,41.7,41.2,42.8z"/>
	<path class="st0" d="M17.1,22c0.2,0,0.4-0.1,0.6-0.1c0.2,0.3,0.6,0.6,1,0.7s0.9,0,1.2-0.2c0.2,0.4,0.6,0.6,1,0.7s0.9,0,1.2-0.2
		c0.2,0.4,0.6,0.6,1,0.7c0.5,0.1,1,0,1.4-0.3c0.4,0.6,1.1,1,1.8,1c1.2,0,2.2-1,2.2-2.2c0-0.5-0.2-1-0.5-1.4c0.3-0.6,0.5-1.2,0.5-1.9
		v-0.1l-1.7-8.5c-0.1-0.3-0.3-0.4-0.6-0.4c-0.3,0.1-0.4,0.3-0.4,0.6l1.7,8.4c0,0.6-0.2,1.1-0.5,1.6l0,0c-0.1,0.2-0.1,0.5,0.1,0.7
		c0.3,0.2,0.4,0.6,0.4,0.9c0,0.7-0.5,1.2-1.2,1.2s-1.2-0.5-1.2-1.2v-1.5c0-0.3-0.2-0.5-0.5-0.5s-0.5,0.2-0.5,0.5v1.6
		c-0.1,0.3-0.5,0.5-0.8,0.4c-0.4-0.1-0.6-0.5-0.5-0.8l0,0c0,0,0,0,0-0.1l0.2-1.7c0-0.3-0.2-0.5-0.4-0.5c-0.3,0-0.5,0.2-0.5,0.4
		L22,21.7c-0.1,0.3-0.5,0.5-0.8,0.5c-0.4-0.1-0.6-0.5-0.5-0.8l0,0l0.3-1.7l0,0c0-0.3-0.1-0.5-0.4-0.6c-0.3,0-0.5,0.1-0.6,0.4
		l-0.3,1.7c-0.1,0.3-0.5,0.6-0.8,0.5s-0.5-0.3-0.5-0.6c0-0.1,0-0.2,0-0.2l0.4-1.6c0.1-0.3-0.1-0.5-0.4-0.6s-0.5,0.1-0.6,0.4
		l-0.4,1.7c0,0.1,0,0.2,0,0.3c-0.1,0.1-0.2,0.2-0.3,0.2c-0.2,0-0.3-0.1-0.3-0.3l1.7-11.8c0-0.3-0.2-0.5-0.4-0.6
		c-0.3,0-0.5,0.2-0.6,0.4l-1.7,11.9c0,0,0,0,0,0.1C15.7,21.4,16.3,22,17.1,22z"/>
	<path class="st0" d="M31,22.2c0,1.2,1,2.2,2.2,2.2c0.8,0,1.4-0.4,1.8-1c0.4,0.3,0.9,0.4,1.4,0.3c0.4-0.1,0.8-0.4,1-0.7
		c0.4,0.2,0.8,0.3,1.2,0.2c0.4-0.1,0.8-0.4,1-0.7c0.4,0.2,0.8,0.3,1.2,0.2c0.4-0.1,0.8-0.4,1-0.7c0.2,0.1,0.4,0.1,0.6,0.1
		c0.7,0,1.3-0.6,1.3-1.3c0,0,0,0,0-0.1l-1.5-12c0-0.3-0.3-0.5-0.6-0.4c-0.3,0-0.5,0.3-0.4,0.6l1.7,11.9c0,0.2-0.2,0.3-0.3,0.3
		s-0.3-0.1-0.3-0.2s0-0.2,0-0.3l-0.4-1.7c-0.1-0.3-0.3-0.4-0.6-0.4c-0.3,0.1-0.4,0.3-0.4,0.6l0.4,1.6c0,0.1,0,0.2,0,0.2
		c0,0.3-0.2,0.6-0.5,0.6c-0.4,0.1-0.7-0.1-0.8-0.5l-0.3-1.7c0-0.3-0.3-0.5-0.6-0.4c-0.3,0-0.5,0.3-0.4,0.6l0.3,1.7l0,0l0,0
		c0.1,0.4-0.1,0.7-0.5,0.8c-0.3,0.1-0.7-0.1-0.8-0.5l-0.2-1.6c0-0.3-0.3-0.5-0.5-0.4c-0.3,0-0.5,0.3-0.4,0.5l0.2,1.7c0,0,0,0,0,0.1
		l0,0c0.1,0.4-0.1,0.7-0.5,0.8c-0.3,0.1-0.7-0.1-0.8-0.4v-1.6c0-0.3-0.2-0.5-0.5-0.5s-0.5,0.2-0.5,0.5v1.5c0,0.7-0.5,1.2-1.2,1.2
		s-1.2-0.5-1.2-1.2c0-0.4,0.2-0.7,0.4-0.9c0.2-0.2,0.2-0.5,0.1-0.7l0,0c-0.3-0.5-0.5-1-0.5-1.6l1.7-8.4c0.1-0.3-0.1-0.5-0.4-0.6
		c-0.3-0.1-0.5,0.1-0.6,0.4L31,18.9V19c0,0.7,0.2,1.3,0.5,1.9C31.2,21.2,31,21.7,31,22.2z"/>
</g>
</svg>
