<?xml version="1.0" encoding="utf-8"?>
<!-- Generator: Adobe Illustrator 25.0.0, SVG Export Plug-In . SVG Version: 6.00 Build 0)  -->
<svg version="1.1" id="레이어_1" xmlns="http://www.w3.org/2000/svg" xmlns:xlink="http://www.w3.org/1999/xlink" x="0px"
	 y="0px" viewBox="0 0 60 60" style="enable-background:new 0 0 60 60;" xml:space="preserve">
<style type="text/css">
	.st0{fill:#B0B43D;}
</style>
<g>
	<path class="st0" d="M42.9,11.3l-2.8-2.8c0,0,0,0-0.1-0.1l0,0l0,0c0,0,0,0-0.1,0l0,0h-0.1l0,0H18.5c-1.1,0-1.9,0.9-1.9,1.9v38.3
		v0.1l0,0c0,0,0,0,0,0.1l0,0l0,0c0,0,0,0.1,0.1,0.1l2.8,2.8c0.1,0.1,0.2,0.1,0.4,0.1h22.7c0.3,0,0.5-0.2,0.5-0.5V11.6
		C43.1,11.5,43,11.4,42.9,11.3z M18.5,9.3h20.8v13.2H17.6V10.2C17.6,9.7,18,9.3,18.5,9.3z M17.6,23.5h21.7V48H17.6V23.5z"/>
	<path class="st0" d="M19.9,19.2c0.1,0,0.5,0,0.9-0.2c0.6-0.3,1-0.9,1-1.7c0-0.4-0.2-1-0.6-1.4c0.4-0.4,0.6-1,0.6-1.4
		c0-1.4-1.1-1.9-1.9-1.9c-0.3,0-0.5,0.2-0.5,0.5v5.7C19.4,19,19.6,19.2,19.9,19.2z M20.4,13.7c0.2,0.1,0.4,0.3,0.4,0.8
		c0,0.2,0,0.6-0.4,0.8V13.7z M20.4,16.5c0.4,0.2,0.4,0.6,0.4,0.8c0,0.4-0.2,0.7-0.4,0.8V16.5z"/>
	<path class="st0" d="M27,19.2c0.1,0,0.5,0,0.9-0.2c0.6-0.3,1-0.9,1-1.7c0-0.4-0.2-1-0.6-1.4c0.4-0.4,0.6-1,0.6-1.4
		c0-1.4-1.1-1.9-1.9-1.9c-0.3,0-0.5,0.2-0.5,0.5v5.7C26.5,19,26.7,19.2,27,19.2z M27.5,13.7c0.2,0.1,0.4,0.3,0.4,0.8
		c0,0.2,0,0.6-0.4,0.8V13.7z M27.5,16.5c0.4,0.2,0.4,0.6,0.4,0.8c0,0.4-0.2,0.7-0.4,0.8V16.5z"/>
	<path class="st0" d="M24.1,19.2c0.3,0,0.5-0.2,0.5-0.5V13c0-0.3-0.2-0.5-0.5-0.5s-0.5,0.2-0.5,0.5v5.7C23.6,19,23.9,19.2,24.1,19.2
		z"/>
	<path class="st0" d="M31.2,19.2h1.4c0.3,0,0.5-0.2,0.5-0.5s-0.2-0.5-0.5-0.5h-0.9V13c0-0.3-0.2-0.5-0.5-0.5s-0.5,0.2-0.5,0.5v5.7
		C30.7,19,31,19.2,31.2,19.2z"/>
	<path class="st0" d="M35.5,19.2h1.4c0.3,0,0.5-0.2,0.5-0.5s-0.2-0.5-0.5-0.5H36v-1.8h0.9c0.3,0,0.5-0.2,0.5-0.5
		c0-0.3-0.2-0.5-0.5-0.5H36v-1.8h0.9c0.3,0,0.5-0.2,0.5-0.5s-0.2-0.5-0.5-0.5h-1.4c-0.3,0-0.5,0.2-0.5,0.5v5.7
		C35,19,35.2,19.2,35.5,19.2z"/>
</g>
</svg>
