<?xml version="1.0" encoding="utf-8"?>
<!-- Generator: Adobe Illustrator 25.0.0, SVG Export Plug-In . SVG Version: 6.00 Build 0)  -->
<svg version="1.1" id="레이어_1" xmlns="http://www.w3.org/2000/svg" xmlns:xlink="http://www.w3.org/1999/xlink" x="0px"
	 y="0px" viewBox="0 0 60 60" style="enable-background:new 0 0 60 60;" xml:space="preserve">
<style type="text/css">
	.st0{fill:#FFFFFF;}
</style>
<g>
	<path class="st0" d="M42.9,16.9l-4.1-4.1v-2.1h0.9c0.3,0,0.5-0.2,0.5-0.5S40,9.7,39.7,9.7h-0.9V8.8c0-0.3-0.2-0.5-0.5-0.5
		s-0.5,0.2-0.5,0.5v0.9h-0.9c-0.3,0-0.5,0.2-0.5,0.5s0.2,0.5,0.5,0.5h0.9v2.1l-4.1,4.1c-0.1,0.1-0.1,0.2-0.1,0.4v12.3H18.5
		c-0.8,0-1.4,0.3-1.7,1c-0.2,0.4-0.2,0.9-0.2,0.9v19.8c0,0.3,0.2,0.5,0.5,0.5h14.2c0.3,0,0.5-0.2,0.5-0.5v-9.9c0-1.3,1-2.3,2.3-2.3
		s2.3,1,2.3,2.3v9.9c0,0.3,0.2,0.5,0.5,0.5h5.7c0.3,0,0.5-0.2,0.5-0.5v-34C43.1,17.2,43,17,42.9,16.9z M42.1,50.8h-4.7v-9.4
		c0-1.8-1.5-3.3-3.3-3.3s-3.3,1.5-3.3,3.3v9.4H17.6V31.5c0-0.2,0.1-0.9,0.9-0.9h15.6c0.3,0,0.5-0.2,0.5-0.5l0,0c0-0.1,0-10.9,0-12.5
		l3.8-3.8l3.8,3.8L42.1,50.8L42.1,50.8z"/>
	<path class="st0" d="M22.7,38.1h-2.8c-0.3,0-0.5,0.2-0.5,0.5v5.7c0,0.3,0.2,0.5,0.5,0.5h2.8c0.3,0,0.5-0.2,0.5-0.5v-5.7
		C23.2,38.3,23,38.1,22.7,38.1z"/>
	<path class="st0" d="M28.4,38.1h-2.8c-0.3,0-0.5,0.2-0.5,0.5v5.7c0,0.3,0.2,0.5,0.5,0.5h2.8c0.3,0,0.5-0.2,0.5-0.5v-5.7
		C28.9,38.3,28.7,38.1,28.4,38.1z"/>
	<path class="st0" d="M36.4,21.5c0,1.1,0.9,1.9,1.9,1.9c1.1,0,1.9-0.9,1.9-1.9c0-1.1-0.9-1.9-1.9-1.9C37.3,19.6,36.4,20.5,36.4,21.5
		z M39.2,21.5c0,0.5-0.4,0.9-0.9,0.9s-0.9-0.4-0.9-0.9s0.4-0.9,0.9-0.9S39.2,21,39.2,21.5z"/>
</g>
</svg>
