<?xml version="1.0" encoding="utf-8"?>
<!-- Generator: Adobe Illustrator 25.0.0, SVG Export Plug-In . SVG Version: 6.00 Build 0)  -->
<svg version="1.1" id="레이어_1" xmlns="http://www.w3.org/2000/svg" xmlns:xlink="http://www.w3.org/1999/xlink" x="0px"
	 y="0px" viewBox="0 0 60 60" style="enable-background:new 0 0 60 60;" xml:space="preserve">
<style type="text/css">
	.st0{fill:#FFFFFF;}
</style>
<g>
	<path class="st0" d="M32.2,30.2c1.5,0.9,3.4,0.4,4.3-1.2c0.9-1.5,0.4-3.4-1.2-4.3c-1.5-0.9-3.4-0.4-4.3,1.2
		C30.1,27.4,30.7,29.3,32.2,30.2"/>
	<path class="st0" d="M33.8,42.5L33.8,42.5h-5l3.8-6.6c0.9-1.5,0.4-3.4-1.2-4.3c-1.5-0.9-3.4-0.4-4.3,1.2l-4.7,8.2
		c-0.9,1.5-0.4,3.4,1.2,4.3c0.5,0.3,1,0.4,1.6,0.4v0h5.5h-7.1c-0.9,0-1.6,0.7-1.6,1.6c0,0.9,0.7,1.6,1.6,1.6h10.3
		c1.7,0,3.2-1.4,3.2-3.2C36.9,43.9,35.5,42.5,33.8,42.5"/>
	<path class="st0" d="M37.7,17.3c-0.2-1.4-0.4-3.4-2.1-5.1c0,0-0.1-0.1-0.2,0c-0.1,0-0.1,0.1-0.1,0.2c0,0,0.1,0.6,0.1,1.3
		c0,0.6-0.1,1-0.2,1.2c0-0.6-0.1-1.2-0.4-1.8C34.2,12,33,11.3,33,11.3c0,0-0.1,0-0.2,0c0,0-0.1,0.1-0.1,0.1c0,0,0.3,1.9-0.1,2.7
		c-0.3,0.5-0.7,0.9-1.1,1.4c-0.4,0.5-0.9,0.9-1.2,1.5c0,0.1-0.1,0.2-0.1,0.3c-0.2,0.5-0.4,1.1-0.4,1.7c0,1,0.4,2,1.2,2.7
		c0.7,0.7,1.7,1.1,2.8,1.1c0,0,0,0,0,0c0,0,0,0,0,0c0,0,0,0,0,0c1,0,1.9-0.3,2.6-0.9c0.7-0.6,1.2-1.5,1.3-2.4c0-0.1,0-0.1,0-0.2
		C37.7,19,37.8,18,37.7,17.3z M35.8,20.1C35.8,20.1,35.8,20.2,35.8,20.1C35.8,20.2,35.8,20.2,35.8,20.1c-0.1,1.1-1,1.8-2,1.8h0
		c-1.2,0-2-0.8-2-1.9c0-0.3,0.1-0.6,0.2-0.9c0,0,0,0,0,0c0,0,0-0.1,0.1-0.1c0.2-0.3,0.4-0.6,0.7-0.8c0.2-0.3,0.5-0.5,0.7-0.8
		c0.2-0.3,0.2-1,0.1-1.4c0.2,0.2,0.5,0.4,0.7,0.8c0.2,0.4,0.3,0.8,0.2,1.1c0,0.1,0,0.1,0.1,0.1c0,0,0.1,0,0.2,0
		c0.3-0.1,0.4-0.5,0.4-1.1c0-0.1,0-0.2,0-0.3c0.6,0.8,0.8,1.7,0.8,2.4C35.8,19.4,35.8,20,35.8,20.1z"/>
</g>
</svg>
