<?xml version="1.0" encoding="utf-8"?>
<!-- Generator: Adobe Illustrator 25.0.0, SVG Export Plug-In . SVG Version: 6.00 Build 0)  -->
<svg version="1.1" id="레이어_1" xmlns="http://www.w3.org/2000/svg" xmlns:xlink="http://www.w3.org/1999/xlink" x="0px"
	 y="0px" viewBox="0 0 60 60" style="enable-background:new 0 0 60 60;" xml:space="preserve">
<style type="text/css">
	.st0{fill:#FFFFFF;}
</style>
<path class="st0" d="M51.1,43H40.2V12.3c0-0.3-0.2-0.5-0.5-0.5H19.9c0,0,0,0,0,0c0,0,0,0-0.1,0c0,0,0,0,0,0c0,0,0,0,0,0c0,0,0,0,0,0
	c0,0,0,0,0,0c0,0,0,0,0,0c0,0,0,0,0,0c0,0,0,0,0,0c0,0,0,0,0,0c0,0,0,0,0,0c0,0,0,0,0,0c0,0,0,0,0,0.1c0,0,0,0,0,0c0,0,0,0,0,0
	c0,0,0,0,0,0c0,0,0,0,0,0.1c0,0,0,0,0,0V43H8.6c-0.3,0-0.5,0.2-0.5,0.5c0,0.3,0.2,0.5,0.5,0.5h11.3l15.5,4.2c0,0,0.1,0,0.1,0
	c0.1,0,0.2,0,0.3-0.1c0.1-0.1,0.2-0.2,0.2-0.4V16.6c0-0.2-0.2-0.4-0.4-0.5l-12-3.3h15.6v30.7c0,0.3,0.2,0.5,0.5,0.5h11.3
	c0.3,0,0.5-0.2,0.5-0.5C51.6,43.2,51.4,43,51.1,43z M32.4,30.1c0.2,0,0.4,0.1,0.5,0.1c0.4,0.1,1.1,0.5,1.1,1.4
	c0,0.5-0.2,0.7-0.4,0.8c-0.2,0.1-0.4,0.2-0.6,0.2l0,0c-0.2,0-0.3,0-0.3,0c-0.4-0.1-1.1-0.5-1.1-1.4C31.4,30.4,31.9,30.1,32.4,30.1z"
	/>
</svg>
