<?xml version="1.0" encoding="utf-8"?>
<!-- Generator: Adobe Illustrator 25.0.0, SVG Export Plug-In . SVG Version: 6.00 Build 0)  -->
<svg version="1.1" id="레이어_1" xmlns="http://www.w3.org/2000/svg" xmlns:xlink="http://www.w3.org/1999/xlink" x="0px"
	 y="0px" viewBox="0 0 60 60" style="enable-background:new 0 0 60 60;" xml:space="preserve">
<style type="text/css">
	.st0{fill:#B0B43D;}
</style>
<g>
	<path class="st0" d="M14.2,32.7H17c0.3,0,0.5-0.2,0.5-0.5s-0.2-0.5-0.5-0.5h-2.8c-0.3,0-0.5,0.2-0.5,0.5S14,32.7,14.2,32.7z"/>
	<path class="st0" d="M29.8,19.9c0.3,0,0.5-0.2,0.5-0.5v-2.8c0-0.3-0.2-0.5-0.5-0.5s-0.5,0.2-0.5,0.5v2.8
		C29.3,19.7,29.5,19.9,29.8,19.9z"/>
	<path class="st0" d="M23,21.4c0.1,0.2,0.3,0.2,0.4,0.2s0.2,0,0.2-0.1c0.2-0.1,0.3-0.4,0.2-0.7l-1.4-2.5c-0.1-0.2-0.4-0.3-0.7-0.2
		c-0.2,0.1-0.3,0.4-0.2,0.7L23,21.4z"/>
	<path class="st0" d="M16.1,24.8l2.5,1.4c0.1,0,0.2,0.1,0.2,0.1c0.2,0,0.3-0.1,0.4-0.2c0.1-0.2,0.1-0.5-0.2-0.7L16.5,24
		c-0.2-0.1-0.5-0.1-0.7,0.2C15.7,24.4,15.8,24.7,16.1,24.8z"/>
	<path class="st0" d="M42.1,32.2c0,0.3,0.2,0.5,0.5,0.5h2.8c0.3,0,0.5-0.2,0.5-0.5s-0.2-0.5-0.5-0.5h-2.8
		C42.3,31.7,42.1,31.9,42.1,32.2z"/>
	<path class="st0" d="M35.9,21.6c0.1,0,0.2,0.1,0.2,0.1c0.2,0,0.3-0.1,0.4-0.2l1.4-2.5c0.1-0.2,0.1-0.5-0.2-0.7
		c-0.2-0.1-0.5-0.1-0.7,0.2L35.6,21C35.6,21.1,35.7,21.4,35.9,21.6z"/>
	<path class="st0" d="M40.9,26.3c0.1,0,0.2,0,0.2-0.1l2.5-1.4c0.2-0.1,0.3-0.4,0.2-0.7c-0.1-0.2-0.4-0.3-0.7-0.2l-2.5,1.4
		c-0.2,0.1-0.3,0.4-0.2,0.7C40.5,26.2,40.7,26.3,40.9,26.3z"/>
	<path class="st0" d="M51.4,43.1L40,34.6c0.2-0.8,0.3-1.6,0.3-2.4c0-5.7-4.7-10.4-10.4-10.4s-10.4,4.7-10.4,10.4
		c0,0.8,0.1,1.6,0.3,2.4L8.3,43.1C8,43.3,8,43.6,8.2,43.8C8.3,43.9,8.4,44,8.6,44c0.1,0,0.2,0,0.3-0.1l16.7-12.5l11,8.3
		c0.1,0.1,0.2,0.1,0.3,0.1c0.2,0,0.3-0.1,0.4-0.2c0.2-0.2,0.1-0.5-0.1-0.7l-2.8-2.1l3.4-2.6l12.9,9.7C50.9,44,51,44,51.1,44
		c0.2,0,0.3-0.1,0.4-0.2C51.6,43.6,51.6,43.3,51.4,43.1z M31.6,26.9c0,0-1.3,1.3-1.3,3.9c0,0.3-0.2,0.5-0.5,0.5s-0.5-0.2-0.5-0.5
		c0-1.8,0.5-3,0.9-3.8h-1.9c-0.3,0-0.5-0.2-0.5-0.5S28,26,28.3,26h2.8c0.2,0,0.4,0.1,0.5,0.3C31.8,26.5,31.7,26.7,31.6,26.9z"/>
</g>
</svg>
