<?xml version="1.0" encoding="utf-8"?>
<!-- Generator: Adobe Illustrator 25.0.0, SVG Export Plug-In . SVG Version: 6.00 Build 0)  -->
<svg version="1.1" id="레이어_1" xmlns="http://www.w3.org/2000/svg" xmlns:xlink="http://www.w3.org/1999/xlink" x="0px"
	 y="0px" viewBox="0 0 60 60" style="enable-background:new 0 0 60 60;" xml:space="preserve">
<style type="text/css">
	.st0{fill:#FFFFFF;}
</style>
<g>
	<path class="st0" d="M26.3,33.2c1.5,0.9,3.4,0.4,4.3-1.2c0.9-1.5,0.4-3.4-1.2-4.3c-1.5-0.9-3.4-0.4-4.3,1.2
		C24.2,30.4,24.7,32.3,26.3,33.2"/>
	<path class="st0" d="M27.8,45.5L27.8,45.5h-5l3.8-6.6c0.9-1.5,0.4-3.4-1.2-4.3c-1.5-0.9-3.4-0.4-4.3,1.2l-4.7,8.2
		c-0.9,1.5-0.4,3.4,1.2,4.3c0.5,0.3,1,0.4,1.6,0.4v0h5.5h-7.1c-0.9,0-1.6,0.7-1.6,1.6c0,0.9,0.7,1.6,1.6,1.6h10.3
		c1.7,0,3.2-1.4,3.2-3.2C31,46.9,29.6,45.5,27.8,45.5"/>
	<path class="st0" d="M40.5,14.6c1.7,0,3.2-1.4,3.2-3.2c0-1.7-1.4-3.2-3.2-3.2c-1.7,0-3.2,1.4-3.2,3.2
		C37.3,13.2,38.7,14.6,40.5,14.6"/>
	<path class="st0" d="M38.5,21.4L38.5,21.4L38.5,21.4c-0.8-0.4-1.6-0.6-2.4-0.6c-0.2,0-0.5,0-0.7,0.1l-5,3.3h0
		c-0.7,0.5-0.9,1.5-0.4,2.2c0.5,0.7,1.5,0.9,2.2,0.4c0,0,0,0,0,0l5.2-3.4v10.7c0,1.2,0.6,2.2,1.6,2.7v13.4c0,0.9,0.7,1.6,1.6,1.6
		c0.9,0,1.6-0.7,1.6-1.6v0V36.8c0.9-0.5,1.6-1.6,1.6-2.7V22.4c-0.4,0.1-0.8,0.1-1.2,0.1C41.1,22.5,39.7,22.1,38.5,21.4"/>
	<path class="st0" d="M40.1,18.7L40.1,18.7c0.7,0.4,1.5,0.6,2.3,0.6c0.4,0,0.8-0.1,1.2-0.1c-0.1-1.7-1.5-3-3.2-3
		c-1.2,0-2.2,0.6-2.7,1.6C38.6,18,39.4,18.3,40.1,18.7L40.1,18.7z"/>
	<path class="st0" d="M46.3,19.6c-0.2-0.4-0.7-0.5-1.1-0.3c-0.8,0.5-1.8,0.7-2.8,0.7c-1,0-1.9-0.3-2.8-0.7c0,0,0,0,0,0
		c-1.1-0.6-2.3-1-3.6-1c-1.3,0-2.5,0.3-3.6,1c0,0,0,0,0,0c-0.8,0.5-1.8,0.7-2.8,0.7c-1,0-1.9-0.3-2.8-0.7c0,0,0,0,0,0
		c-1.1-0.6-2.3-1-3.6-1c-1.3,0-2.5,0.3-3.6,1l0,0c-0.8,0.5-1.8,0.7-2.8,0.7c-1,0-1.9-0.3-2.8-0.7c-0.4-0.2-0.9-0.1-1.1,0.3
		c-0.2,0.4-0.1,0.9,0.3,1.1c1.1,0.6,2.3,1,3.6,1c1.3,0,2.5-0.3,3.6-1c0,0,0,0,0,0c0.8-0.5,1.8-0.7,2.8-0.7c1,0,1.9,0.3,2.8,0.7
		c0,0,0,0,0,0c1.1,0.6,2.3,1,3.6,1c1.3,0,2.5-0.3,3.6-1c0,0,0,0,0,0c0.8-0.5,1.8-0.7,2.8-0.7c1,0,1.9,0.3,2.8,0.7c0,0,0,0,0,0
		c1.1,0.6,2.3,1,3.6,1c1.3,0,2.5-0.3,3.6-1C46.4,20.5,46.5,20,46.3,19.6"/>
</g>
</svg>
