<?xml version="1.0" encoding="utf-8"?>
<!-- Generator: Adobe Illustrator 25.0.0, SVG Export Plug-In . SVG Version: 6.00 Build 0)  -->
<svg version="1.1" id="레이어_1" xmlns="http://www.w3.org/2000/svg" xmlns:xlink="http://www.w3.org/1999/xlink" x="0px"
	 y="0px" viewBox="0 0 60 60" style="enable-background:new 0 0 60 60;" xml:space="preserve">
<style type="text/css">
	.st0{fill:#662B41;}
</style>
<path class="st0" d="M36.6,33.5c-0.1,0.2-0.2,0.5-0.2,0.8l0,0l0,0c0,1.5,2,2.6,4.8,2.6c2.7,0,4.8-1.1,4.8-2.6l0,0l0,0
	c0-0.3-0.1-0.5-0.2-0.8l-4-13.4v-2.9l0,0l0,0l0,0l0,0l0,0l0,0l0,0l0,0l0,0l0,0l0,0l0,0l0,0l0,0c0,0,0,0-0.1,0l0,0h-0.1H31v-0.6
	c0.8-0.4,1.4-1.3,1.4-2.3c0-1.4-1.2-2.6-2.6-2.6s-2.6,1.2-2.6,2.6c0,1,0.6,1.9,1.4,2.3v0.6H18.5h-0.1l0,0c0,0,0,0-0.1,0l0,0l0,0l0,0
	l0,0l0,0l0,0l0,0l0,0l0,0l0,0l0,0l0,0l0,0l0,0v2.9l-4,13.4c-0.1,0.2-0.2,0.5-0.2,0.8l0,0l0,0c0,1.5,2,2.6,4.8,2.6
	c2.7,0,4.8-1.1,4.8-2.6l0,0l0,0c0-0.3-0.1-0.5-0.2-0.8l-4-13.4v-2.3l9.6,1.4v14.1c-0.4,0.2-0.7,0.6-0.7,1.1l0,0v9.4h-6.6
	c-0.9,0-1.6,0.6-1.9,1.4c-1.6,0.2-2.9,1.6-2.9,3.3c0,0.3,0.2,0.5,0.5,0.5H43l0,0c0.3,0,0.5-0.2,0.5-0.5c0-1.7-1.3-3.1-2.9-3.3
	c-0.2-0.8-1-1.4-1.9-1.4h-6.6v-9.4l0,0c0-0.5-0.3-0.9-0.7-1.1V19.1l9.6-1.4V20L36.6,33.5z M21.6,32.3c-0.8-0.4-1.9-0.6-3.1-0.6
	s-2.3,0.2-3.1,0.6l3.1-10.4L21.6,32.3z M38.3,44.7c0.5,0,0.9,0.4,0.9,0.9c0,0.3,0.2,0.5,0.5,0.5c1.1,0,2.1,0.8,2.3,1.8H17.6
	c0.2-1,1.2-1.8,2.3-1.8c0.3,0,0.5-0.2,0.5-0.5c0-0.5,0.4-0.9,0.9-0.9H38.3z M30.5,34.1c0.1,0,0.2,0.1,0.2,0.2v9.4h-1.8v-9.4
	c0-0.1,0.1-0.2,0.2-0.2C29.1,34.1,30.5,34.1,30.5,34.1z M29.6,33.1V16.4c0.1,0,0.1,0,0.2,0s0.1,0,0.2,0v16.7H29.6z M30.4,15.3
	c-0.1,0-0.1,0-0.1,0.1c-0.1,0-0.3,0.1-0.5,0.1s-0.3,0-0.5-0.1c0,0-0.1,0-0.1-0.1c-0.6-0.2-1-0.8-1-1.5c0-0.9,0.7-1.6,1.6-1.6
	s1.6,0.7,1.6,1.6C31.4,14.4,31,15,30.4,15.3z M41.2,21.9l3.1,10.4c-0.8-0.4-1.9-0.6-3.1-0.6c-1.2,0-2.3,0.2-3.1,0.6L41.2,21.9z"/>
</svg>
