<?xml version="1.0" encoding="utf-8"?>
<!-- Generator: Adobe Illustrator 25.0.0, SVG Export Plug-In . SVG Version: 6.00 Build 0)  -->
<svg version="1.1" id="레이어_1" xmlns="http://www.w3.org/2000/svg" xmlns:xlink="http://www.w3.org/1999/xlink" x="0px"
	 y="0px" viewBox="0 0 60 60" style="enable-background:new 0 0 60 60;" xml:space="preserve">
<style type="text/css">
	.st0{fill:#D96968;}
</style>
<path class="st0" d="M42.6,18.2h-9.4V8.8c0-0.3-0.2-0.5-0.5-0.5h-4.3c-1.1,0-1.9,0.9-1.9,1.9v8h-8c-1.1,0-1.9,0.9-1.9,1.9v4.3
	c0,0.3,0.2,0.5,0.5,0.5h9.4v26.4c0,0.3,0.2,0.5,0.5,0.5h5.7c0.3,0,0.5-0.2,0.5-0.5V24.9h9.4c0.3,0,0.5-0.2,0.5-0.5v-5.7
	C43.1,18.4,42.9,18.2,42.6,18.2z"/>
</svg>
