<?xml version="1.0" encoding="utf-8"?>
<!-- Generator: Adobe Illustrator 25.0.0, SVG Export Plug-In . SVG Version: 6.00 Build 0)  -->
<svg version="1.1" id="레이어_1" xmlns="http://www.w3.org/2000/svg" xmlns:xlink="http://www.w3.org/1999/xlink" x="0px"
	 y="0px" viewBox="0 0 60 60" style="enable-background:new 0 0 60 60;" xml:space="preserve">
<style type="text/css">
	.st0{fill:#516F30;}
</style>
<g>
	<path class="st0" d="M29.3,44.7l-1.5-12.2c1.9-0.8,2.8-2.4,2.8-5.3c0-1.8,0.5-3,1-4.1c0.3-0.8,0.6-1.6,0.6-2.3
		c0-1.9-1.9-3.8-3.8-3.8c-1,0-1.8,0.5-2.4,1l-0.3-2l1.3-2.6c0.2-0.2,0.3-0.4,0.3-0.6l0,0l0,0c0,0,0,0,0-0.1l0,0
		c-0.1-0.7-0.9-1.3-2.6-1.6c-1.4-0.3-3.3-0.5-5.3-0.5s-3.9,0.2-5.3,0.5c-1.8,0.4-2.6,0.9-2.6,1.7c0,0.5,0.3,0.8,0.9,1.2l2.3,2.3
		L8.4,44.6v0.1c0,1.4,1.1,2.7,3.2,3.6c1.9,0.9,4.5,1.3,7.2,1.3s5.3-0.5,7.2-1.3C28.1,47.4,29.3,46.1,29.3,44.7L29.3,44.7L29.3,44.7z
		 M28.3,18.1c1.3,0,2.7,1.4,2.7,2.7c0,0.6-0.2,1.2-0.6,1.9c-0.5,1.1-1.1,2.6-1.1,4.6c0,2.6-0.8,3.6-1.8,4.1l-1.5-12
		C26.4,18.9,27.3,18.1,28.3,18.1z M19.4,11.6c3.9,0,6.2,0.6,6.7,1l0,0c-0.1,0.1-0.2,0.1-0.3,0.2C24.3,12.3,22,12,19.4,12
		c-2.3,0-4.4,0.2-5.8,0.6c-0.1,0-0.2,0.1-0.3,0.2h-0.1l-0.3-0.3C13.5,12.1,15.7,11.6,19.4,11.6z M25.6,47.3
		c-1.8,0.8-4.2,1.2-6.7,1.2c-2.6,0-4.9-0.4-6.7-1.2c-1.6-0.7-2.5-1.6-2.5-2.5L15.9,16c0-0.2,0-0.4-0.2-0.5l-1-1
		c1.3,0.2,2.9,0.4,4.7,0.4c2,0,3.9-0.2,5.3-0.5c0.2,0,0.4-0.1,0.6-0.1l-0.7,1.4l0,0l0,0l0,0v0.1c0,0,0,0,0,0.1c0,0,0,0,0,0.1v0.1
		l0,0l0,0l0,0l3.6,28.8C28.1,45.7,27.2,46.6,25.6,47.3z"/>
	<path class="st0" d="M51,41.6L51,41.6c-0.2-1.3-1.2-2.7-3-3.6c-1.1-0.6-4.9-2.4-7.9-2.4c-1.1,0-2,0.3-2.5,0.8
		C36.2,38,34.8,38,33.2,38c-1.3,0-3.8,0.8-3.8,3.8c0,0.3,0,0.7,0,1.3c0,0.2,0,0.3,0,0.4c0,2.5,2.3,3.4,4.2,4.1
		c1,0.4,1.9,0.7,2.4,1.2c0.6,0.6,1.6,0.8,2.5,0.8c0.8,0,1.6-0.1,2.1-0.3c1.7-0.4,3.4-1.3,4.3-2.2c1.5-1.5,2.8-1.5,4.5-1.5
		c0.3,0,0.7-0.1,1.1-0.7C51.2,44.1,51.4,42.6,51,41.6z M33.2,39.1c1.6,0,3.5,0,5.3-1.8c0.3-0.3,0.9-0.5,1.7-0.5
		c2.1,0,5.2,1.2,7.3,2.2c1.9,1,2.5,2.5,2.3,3.3c-0.1,0.4-0.4,0.4-0.5,0.4c-1.6,0-3.5,0-5.3,1.8c-1,1-3.6,2.1-5.6,2.1
		c-0.5,0-1.3-0.1-1.7-0.5C36,45.4,35,45,33.9,44.6c-2.1-0.8-3.5-1.4-3.5-3C30.5,39.2,32.9,39.1,33.2,39.1z"/>
	<path class="st0" d="M34.8,44c0.3,0,0.6-0.3,0.6-0.6c0,0,0-0.3,0.1-0.6c0.2-0.3,0.5-0.5,0.9-0.5l0,0c0.8,0,1.7,0,2.4-0.2
		c0.9-0.3,1.4-1,1.4-2c0-0.3-0.3-0.6-0.6-0.6S39,39.8,39,40.1c0,0.5-0.2,0.7-0.6,0.9c-0.5,0.2-1.3,0.2-2,0.2l0,0
		c-0.9,0-1.6,0.4-1.9,1.1c-0.3,0.5-0.3,1-0.3,1.1C34.3,43.7,34.5,44,34.8,44z"/>
	<path class="st0" d="M41.3,44c0.2,0,0.3-0.1,0.4-0.2c0.2-0.2,0.8-0.7,1.2-0.7c1.2,0,2.2-1.7,2.2-2.2c0-0.3-0.3-0.6-0.6-0.6
		s-0.5,0.2-0.6,0.5s-0.7,1.1-1.1,1.1c-1,0-1.9,1-2,1.1c-0.2,0.2-0.2,0.6,0,0.8C41,44,41.2,44,41.3,44z"/>
</g>
</svg>
