<?xml version="1.0" encoding="utf-8"?>
<!-- Generator: Adobe Illustrator 25.0.0, SVG Export Plug-In . SVG Version: 6.00 Build 0)  -->
<svg version="1.1" id="레이어_1" xmlns="http://www.w3.org/2000/svg" xmlns:xlink="http://www.w3.org/1999/xlink" x="0px"
	 y="0px" viewBox="0 0 606.6 122.9" style="enable-background:new 0 0 606.6 122.9;" xml:space="preserve">
<style type="text/css">
	.st0{fill:#333333;}
</style>
<g>
	<g>
		<g>
			<g>
				<path class="st0" d="M52.1,25.8c0,22,6.6,43.4,28.1,52.4L68.6,94.4c-13-5.8-21.4-15.9-26.5-28.8c-5,14.1-13.8,25.6-27.8,31.9
					L2.5,80.8c22-9.1,29.3-31.9,29.3-55V11.1h20.4L52.1,25.8L52.1,25.8z M102.5,2.3v117.9H82.3V2.3H102.5z"/>
			</g>
			<g>
				<path class="st0" d="M180.1,60.9c-12-3.8-20-10.9-25-19.9c-5,10-13.6,17.9-26.8,21.8L117.9,47c20.5-5.9,26.8-20.1,26.8-33.8v-7
					h20.6v7c0,13,5.8,26.2,25,32L180.1,60.9z M221.4,103.2v15.4H140V84.9h58.5v-3.8h-58.6V65.9h78.6v33.4H160v3.9
					C160,103.2,221.4,103.2,221.4,103.2z M198.3,33.2h-19.1V17.4h19.1v-15h20.2v59.3h-20.2V33.2z"/>
			</g>
			<g>
				<path class="st0" d="M293,4.1h18.8v110.8H293V79.7h-10.6c-4.4,11.1-11.9,17.4-21.6,17.4c-15.6,0-25.6-16.2-25.6-43.6
					s10-43.6,25.6-43.6c9.6,0,17,6.1,21.5,17.1h10.8L293,4.1L293,4.1z M268.5,53.4c0-17.4-2.6-24.5-7.8-24.5c-5,0-7.6,7.1-7.6,24.5
					s2.6,24.5,7.6,24.5C265.9,77.9,268.5,70.8,268.5,53.4z M293,63.6V43.1h-7c0.4,3.4,0.5,6.8,0.5,10.4c0,3.6-0.1,6.9-0.5,10.1H293z
					 M335.8,2.4v117.2h-19.1V2.4H335.8z"/>
			</g>
			<g>
				<path class="st0" d="M382,66.9c-18.2,0-32.5-12.2-32.5-29.1S363.8,8.6,382,8.6c18.4,0,32.6,12.4,32.6,29.2S400.4,66.9,382,66.9z
					 M363.1,75.8h79.4v44h-20.2V91.7h-59.1L363.1,75.8L363.1,75.8z M382,50.1c7.4,0,12.9-4.1,12.9-12.2c0-8.2-5.5-12.2-12.9-12.2
					c-7.2,0-12.8,4-12.8,12.2C369.3,45.9,374.8,50.1,382,50.1z M442.5,32.7v9.2h14v16.3h-14v13.2h-20.2V2.6h20.2v13.9h14v16.2H442.5
					z"/>
			</g>
		</g>
	</g>
</g>
</svg>
