<?xml version="1.0" encoding="utf-8"?>
<!-- Generator: Adobe Illustrator 25.0.0, SVG Export Plug-In . SVG Version: 6.00 Build 0)  -->
<svg version="1.1" id="레이어_1" xmlns="http://www.w3.org/2000/svg" xmlns:xlink="http://www.w3.org/1999/xlink" x="0px"
	 y="0px" viewBox="0 0 606.6 122.9" style="enable-background:new 0 0 606.6 122.9;" xml:space="preserve">
<style type="text/css">
	.st0{fill:#F2E5D2;}
</style>
<g>
	<g>
		<g>
			<path class="st0" d="M101.5,3.3v115.9H83.3V3.3H101.5 M51.1,12.1v13.8c0,26.4,9.5,44.7,27.6,52.8L68.3,93.3
				c-11.7-5.4-19.9-14.5-25.2-27.9l-1-2.5l-0.9,2.5c-5.2,14.8-14.1,25.2-26.5,31L4,81.2c9.9-4.4,17.4-11.9,22.2-22.3
				c4.3-9.1,6.5-20.3,6.5-33.2V12.1H51.1 M102.5,2.3H82.3v117.9h20.2L102.5,2.3L102.5,2.3z M52.1,11.1H31.8v14.8
				c0,23.1-7.2,45.9-29.3,55l11.9,16.7c14-6.2,22.8-17.8,27.8-31.9c5.1,12.9,13.5,23,26.5,28.8l11.6-16.2
				c-21.5-9-28.1-30.4-28.1-52.4V11.1H52.1z"/>
		</g>
		<g>
			<path class="st0" d="M217.5,3.4v57.3h-18.2V33.2v-1h-1h-18.1V18.4h18.1h1v-1v-14L217.5,3.4 M164.4,7.3v6c0,11.3,4.3,26,24.4,32.6
				l-9.1,13.9c-10.6-3.5-18.6-9.9-23.7-19.2l-0.9-1.7l-0.8,1.7c-5.2,10.3-13.7,17.4-25.4,21l-9.2-14c22.7-7.1,26.2-24.5,26.2-34.3
				v-6H164.4 M217.5,66.9v31.4H160h-1v1v3.9v1h1h60.4v13.4H141V85.9h57.5h1v-1v-3.8v-1h-1h-57.6V66.9H217.5 M218.5,2.4h-20.2v15
				h-19.1v15.8h19.1v28.5h20.2V2.4L218.5,2.4z M165.4,6.3h-20.6v7c0,13.6-6.2,27.9-26.8,33.8l10.4,15.8
				c13.1-3.9,21.8-11.8,26.8-21.8c5,9,13,16.1,25,19.9l10.2-15.6c-19.2-5.8-25-19-25-32L165.4,6.3L165.4,6.3z M218.5,65.9h-78.6
				v15.2h58.6v3.8H140v33.7h81.4v-15.4H160v-3.9h58.5V65.9L218.5,65.9z"/>
		</g>
		<g>
			<path class="st0" d="M334.8,3.4v115.2h-17.1V3.4H334.8 M310.8,5.1v108.8H294V79.7v-1h-1h-10.6h-0.7l-0.2,0.6
				C277.2,90.3,270,96,260.8,96c-15.2,0-24.6-16.3-24.6-42.6s9.4-42.6,24.6-42.6c9,0,16.2,5.7,20.6,16.5l0.3,0.6h0.7h10.8h1v-1V5.1
				H310.8 M260.8,78.9c6.1,0,8.8-7.9,8.8-25.5s-2.7-25.5-8.8-25.5c-6,0-8.6,7.9-8.6,25.5S254.8,78.9,260.8,78.9 M284.9,64.6h1.1h7h1
				v-1V43.1v-1h-1h-7h-1.1l0.1,1.1c0.3,3,0.5,6.3,0.5,10.3s-0.2,7.1-0.5,10L284.9,64.6 M335.8,2.4h-19.1v117.2h19.1V2.4L335.8,2.4z
				 M311.8,4.1H293V27h-10.8c-4.5-11-11.9-17.1-21.5-17.1c-15.6,0-25.6,16.2-25.6,43.6s10,43.6,25.6,43.6c9.8,0,17.2-6.2,21.6-17.4
				h10.6v35.1h18.8L311.8,4.1L311.8,4.1z M260.8,77.9c-5,0-7.6-7.1-7.6-24.5s2.6-24.5,7.6-24.5c5.1,0,7.8,7.1,7.8,24.5
				S265.9,77.9,260.8,77.9L260.8,77.9z M286,63.6c0.4-3.2,0.5-6.5,0.5-10.1s-0.1-7-0.5-10.4h7v20.5H286L286,63.6z"/>
		</g>
		<g>
			<path class="st0" d="M441.5,3.6v12.9v1h1h13v14.2h-13h-1v1v9.2v1h1h13v14.3h-13h-1v1v12.2h-18.2V3.6H441.5 M382,9.6
				c18,0,31.6,12.1,31.6,28.2c0,16-13.6,28.1-31.6,28.1s-31.5-12.1-31.5-28.1C350.5,21.7,364.1,9.6,382,9.6 M382,51.1
				c8.6,0,13.9-5.1,13.9-13.2s-5.3-13.3-13.9-13.3c-8.5,0-13.8,5.1-13.8,13.2C368.3,45.9,373.7,51.1,382,51.1 M441.5,76.8v42h-18.2
				V91.7v-1h-1h-58.1V76.8H441.5 M442.5,2.6h-20.2v68.9h20.2V58.2h14V41.9h-14v-9.2h14V16.4h-14V2.6L442.5,2.6z M382,8.6
				c-18.2,0-32.5,12.4-32.5,29.2s14.2,29.1,32.5,29.1c18.4,0,32.6-12.2,32.6-29.1S400.4,8.6,382,8.6L382,8.6z M382,50.1
				c-7.2,0-12.8-4.1-12.8-12.2c0-8.2,5.5-12.2,12.8-12.2c7.4,0,12.9,4,12.9,12.2C394.9,45.9,389.4,50.1,382,50.1L382,50.1z
				 M442.5,75.8h-79.4v15.9h59.1v28.1h20.2L442.5,75.8L442.5,75.8z"/>
		</g>
	</g>
</g>
</svg>
