<?xml version="1.0" encoding="utf-8"?>
<!-- Generator: Adobe Illustrator 25.0.0, SVG Export Plug-In . SVG Version: 6.00 Build 0)  -->
<svg version="1.1" id="레이어_1" xmlns="http://www.w3.org/2000/svg" xmlns:xlink="http://www.w3.org/1999/xlink" x="0px"
	 y="0px" viewBox="0 0 606.6 122.9" style="enable-background:new 0 0 606.6 122.9;" xml:space="preserve">
<style type="text/css">
	.st0{fill:#333333;}
</style>
<g>
	<g>
		<g>
			<path class="st0" d="M64.6,61.1c-12-3.8-20-10.9-25-19.9c-5,10-13.6,17.9-26.8,21.8L2.5,47.3C23,41.4,29.3,27.2,29.3,13.5v-7
				h20.6v7c0,13,5.8,26.2,25,32L64.6,61.1z M105.9,103.4v15.4H24.5V85.1H83v-3.8H24.4V66.1H103v33.4H44.5v3.9H105.9z M82.8,33.4
				H63.6V17.6h19.1v-15h20.2v59.3H82.8V33.4z"/>
		</g>
		<g>
			<path class="st0" d="M225.3,90.9V107H118.9V90.9h20.4v-36h19.9v36h9v-36h19.9v36H225.3z M192.9,75.6c3.5-20.1,3.9-35.6,4-48.1
				h-68V11.6h88.2v10.6c0,13.9,0,30.6-4,55.4L192.9,75.6z"/>
		</g>
		<g>
			<path class="st0" d="M284.1,13.8h11.6l-22,99.5h-11.6L284.1,13.8z"/>
		</g>
		<g>
			<path class="st0" d="M392.6,9.9c0,32.2-18.9,54.1-53.8,63.6l-8.1-16.1c24.1-6.3,37-17.9,39.8-31.6h-34V9.9H392.6z M426.5,95.6
				c0,15-16.2,24.6-40,24.6c-23.9,0-40.1-9.6-40.1-24.6c0-15.1,16.2-24.8,40.1-24.8C410.3,70.9,426.5,80.5,426.5,95.6z M406.5,95.6
				c0-6.4-7.2-9.2-20-9.2c-12.9,0-20.1,2.9-20.1,9.2c0,6.2,7.2,9.1,20.1,9.1C399.3,104.8,406.5,101.9,406.5,95.6z M439.9,28.5v16.4
				h-14.6v24.4h-20.2V2.6h20.2v25.9H439.9z"/>
		</g>
		<g>
			<path class="st0" d="M492.6,27.1c1.5,10.1,8.1,20.2,25.1,24.9l-9.5,15.6c-12.5-3.5-20.7-10.4-26-19c-5,9.8-13.6,17.5-26.9,21.3
				l-9.9-15.5c17.5-5,24.5-16.1,25.9-27.2h-21.1V11h63.6v16.1H492.6z M492.1,82c8-0.5,15.9-1.1,23.4-2.1l1.6,14.5
				c-24.2,4.8-49.6,4.6-68.9,4.5l-2.3-16.1c7.8,0,16.8,0,26-0.1v-18h20.2V82z M554.9,64.1h-13.8v55.8h-20.2V2.5h20.2v45.1h13.8V64.1
				z"/>
		</g>
	</g>
</g>
</svg>
