<?xml version="1.0" encoding="utf-8"?>
<!-- Generator: Adobe Illustrator 25.0.0, SVG Export Plug-In . SVG Version: 6.00 Build 0)  -->
<svg version="1.1" id="레이어_1" xmlns="http://www.w3.org/2000/svg" xmlns:xlink="http://www.w3.org/1999/xlink" x="0px"
	 y="0px" viewBox="0 0 606.6 122.9" style="enable-background:new 0 0 606.6 122.9;" xml:space="preserve">
<style type="text/css">
	.st0{fill:#F2E5D2;}
</style>
<g>
	<g>
		<g>
			<path class="st0" d="M102,3.5v57.3H83.8V33.3v-1h-1H64.6V18.5h18.1h1v-1v-14L102,3.5 M48.9,7.4v6c0,11.3,4.3,26,24.4,32.6
				l-9.1,13.9c-10.6-3.5-18.6-10-23.7-19.2L39.6,39l-0.9,1.7C33.5,51,25,58.1,13.3,61.7l-9.2-14c22.7-7.1,26.2-24.5,26.2-34.3v-6
				H48.9 M102,67v31.4H44.5h-1v1v3.9v1h1h60.4v13.4H25.5V86H83h1v-1v-3.8v-1h-1H25.4V67H102 M103,2.5H82.8v15H63.6v15.8h19.1v28.5
				h20.2L103,2.5L103,2.5z M49.9,6.4H29.3v7c0,13.6-6.2,27.9-26.8,33.8L12.9,63C26,59.1,34.7,51.2,39.7,41.2c5,9,13,16.1,25,19.9
				l10.2-15.6c-19.2-5.8-25-19-25-32V6.4L49.9,6.4z M103,66H24.4v15.2H83V85H24.5v33.7h81.4v-15.4H44.5v-3.9H103V66L103,66z"/>
		</g>
		<g>
			<path class="st0" d="M216.1,12.5v9.6c0,13.4,0,30.1-3.8,54.3l-18.2-1.8c3.3-19.4,3.7-34.5,3.8-47.2v-1h-1h-67V12.5H216.1
				 M187,55.8v35v1h1h36.2v14.1H119.9V91.8h19.4h1v-1v-35h17.9v35v1h1h9h1v-1v-35H187 M217.1,11.5h-88.2v15.9h68
				c-0.1,12.5-0.5,28-4,48.1l20.2,2c4-24.8,4-41.5,4-55.4V11.5L217.1,11.5z M188,54.8h-19.9v36h-9v-36h-19.9v36h-20.4v16.1h106.4
				V90.8H188L188,54.8L188,54.8z"/>
		</g>
		<g>
			<path class="st0" d="M294.5,14.7l-21.6,97.5h-9.5l21.5-97.5H294.5 M295.7,13.7h-11.6l-22,99.5h11.6L295.7,13.7L295.7,13.7z"/>
		</g>
		<g>
			<path class="st0" d="M424.3,3.5v24.9v1h1h13.6v14.4h-13.6h-1v1v23.4h-18.2V3.5H424.3 M391.6,10.8c-0.4,30.8-18.4,52-52.2,61.4
				l-7.2-14.3c22.4-6.1,36.4-17.4,39.3-32.1l0.2-1.2h-1.2h-33V10.8H391.6 M386.5,71.8c11.6,0,21.4,2.3,28.4,6.6
				c6.9,4.2,10.6,10.2,10.6,17.2c0,6.9-3.7,12.9-10.6,17.1c-7,4.3-16.8,6.5-28.4,6.5s-21.5-2.3-28.5-6.5s-10.6-10.1-10.6-17.1
				s3.7-13,10.6-17.2C365,74.1,374.9,71.8,386.5,71.8 M386.5,105.7c13.9,0,21-3.4,21-10.1c0-6.8-7.1-10.2-21-10.2
				c-14,0-21.1,3.4-21.1,10.2C365.4,102.3,372.5,105.7,386.5,105.7 M425.3,2.5h-20.2v66.6h20.2V44.8h14.6V28.4h-14.6V2.5L425.3,2.5z
				 M392.6,9.8h-56.1v15.9h34c-2.8,13.8-15.6,25.4-39.8,31.6l8.1,16.1C373.8,63.9,392.6,42,392.6,9.8L392.6,9.8z M386.5,70.8
				c-23.9,0-40.1,9.6-40.1,24.8c0,15,16.2,24.6,40.1,24.6c23.8,0,40-9.6,40-24.6C426.5,80.4,410.3,70.8,386.5,70.8L386.5,70.8z
				 M386.5,104.7c-12.9,0-20.1-2.9-20.1-9.1c0-6.4,7.2-9.2,20.1-9.2c12.8,0,20,2.9,20,9.2C406.5,101.8,399.3,104.7,386.5,104.7
				L386.5,104.7z"/>
		</g>
		<g>
			<path class="st0" d="M540.1,3.4v44.1v1h1h12.8V63h-12.8h-1v1v54.8h-18.2V3.4H540.1 M512.9,11.9V26h-20.2h-1.2l0.2,1.1
				c1.3,8.7,6.6,20,24.6,25.3l-8.4,13.9c-10.9-3.2-19.2-9.4-24.7-18.3l-0.9-1.5l-0.8,1.6c-5.2,10.1-13.8,17-25.5,20.5l-8.8-13.8
				c14.7-4.6,23.7-14.4,25.3-27.7l0.1-1.1h-1.2h-20.1V11.9H512.9 M491.1,65.5v16.4V83l1.1-0.1c9.2-0.6,16.2-1.2,22.4-2l1.4,12.6
				c-20.1,3.8-40.6,4.3-58.1,4.3c-3.1,0-6,0-8.8,0L447,83.7c7.6,0,16.1,0,24.9-0.1h1v-1v-17L491.1,65.5 M541.1,2.4h-20.2v117.4h20.2
				V64h13.8V47.5h-13.8V2.4L541.1,2.4z M513.9,10.9h-63.6V27h21.1c-1.4,11.1-8.4,22.2-25.9,27.2l9.9,15.5
				c13.2-3.8,21.9-11.5,26.9-21.3c5.2,8.6,13.5,15.5,26,19l9.5-15.6c-17-4.6-23.6-14.8-25.1-24.9h21.2V10.9L513.9,10.9z M492.1,64.5
				h-20.2v18c-9.2,0.1-18.2,0.1-26,0.1l2.4,16.1c3.1,0,6.3,0,9.7,0c17.7,0,38.8-0.6,59.2-4.5l-1.6-14.5c-7.5,1-15.4,1.6-23.4,2.1
				V64.5H492.1z"/>
		</g>
	</g>
</g>
</svg>
