<?xml version="1.0" encoding="utf-8"?>
<!-- Generator: Adobe Illustrator 25.0.0, SVG Export Plug-In . SVG Version: 6.00 Build 0)  -->
<svg version="1.1" id="레이어_1" xmlns="http://www.w3.org/2000/svg" xmlns:xlink="http://www.w3.org/1999/xlink" x="0px"
	 y="0px" viewBox="0 0 606.6 122.9" style="enable-background:new 0 0 606.6 122.9;" xml:space="preserve">
<style type="text/css">
	.st0{fill:#333333;}
</style>
<g>
	<g>
		<g>
			<path class="st0" d="M102.6,3.4v71H85.5V45.9v-1h-1h-5.1h-1v1v25H61.6V5.7h16.8v24.1v1h1h5.1h1v-1V3.4H102.6 M39.2,4.9v8.5v1h1
				h16.9v13.4H3.5V14.4h16.9h1v-1V4.9H39.2 M30.5,32.3c14.2,0,24.5,8.3,24.5,19.8c0,11.4-10.3,19.6-24.5,19.6S6,63.4,6,52.1
				C6,40.6,16.3,32.3,30.5,32.3 M30.5,59.4c5.3,0,8.6-2.8,8.6-7.4c0-4.7-3.2-7.5-8.6-7.5s-8.6,2.8-8.6,7.5
				C21.9,56.6,25.2,59.4,30.5,59.4 M63.2,77.2c25,0,40,7.9,40,21s-15,20.9-40,20.9c-25.1,0-40.1-7.8-40.1-20.9
				C23.1,85,38.1,77.2,63.2,77.2 M63.2,106.1c11.3,0,21.8-1,21.8-7.9c0-5.7-6.3-8-21.8-8s-21.9,2.3-21.9,8
				C41.4,103.8,47.7,106.1,63.2,106.1 M103.6,2.4H84.5v27.4h-5.1V4.7H60.6v67.2h18.8v-26h5.1v29.5h19.1L103.6,2.4L103.6,2.4z
				 M40.2,3.9H20.4v9.5H2.5v15.4h55.6V13.4H40.2V3.9L40.2,3.9z M30.5,31.3C15.7,31.3,5,39.9,5,52.1c0,12,10.8,20.6,25.5,20.6
				S56,64.1,56,52.1C56,39.9,45.2,31.3,30.5,31.3L30.5,31.3z M30.5,58.4c-4.5,0-7.6-2.1-7.6-6.4c0-4.4,3.1-6.5,7.6-6.5
				s7.6,2.1,7.6,6.5C38.1,56.3,35,58.4,30.5,58.4L30.5,58.4z M63.2,76.2c-25.5,0-41.1,8-41.1,22c0,13.9,15.6,21.9,41.1,21.9
				c25.4,0,41-8,41-21.9C104.2,84.2,88.6,76.2,63.2,76.2L63.2,76.2z M63.2,105.1c-14.4,0-20.9-1.9-20.9-6.9c0-5.1,6.5-7,20.9-7
				c14.2,0,20.8,1.9,20.8,7C84,103.2,77.5,105.1,63.2,105.1L63.2,105.1z"/>
		</g>
		<g>
			<path class="st0" d="M209.9,3.6v42.9v1h1h14.8V62h-14.8h-1v1v55.9h-18.2V3.6H209.9 M162.4,12.1v13.8c0,26.3,8.4,44,25.1,52.7
				L176.6,93c-10.2-5.4-17.8-14.6-22.5-27.3l-0.9-2.5l-0.9,2.5c-5.1,13.9-13.4,23.9-24.6,29.5l-10.8-14.7
				c12.7-6.2,27.2-20.7,27.2-54.5V12.1H162.4 M210.9,2.6h-20.2v117.2h20.2V62.9h15.8V46.4h-15.8V2.6L210.9,2.6z M163.4,11.1H143
				v14.8c0,22.1-6.6,44.5-27.8,54.1l12,16.4c12.6-6,21-17,25.9-30.4c4.6,12.4,12.1,22.4,23.8,28.2l12.1-16
				c-20-9.8-25.6-31-25.6-52.4V11.1L163.4,11.1z"/>
		</g>
		<g>
			<path class="st0" d="M293.6,14.6L272,112.1h-9.5L284,14.6H293.6 M294.8,13.6h-11.6l-22,99.5h11.6L294.8,13.6L294.8,13.6z"/>
		</g>
		<g>
			<path class="st0" d="M374.9,2.6V9v1h1h21.6v11.1h-63.9V9.9h22h1v-1V2.6H374.9 M424.5,3.4v25.5v1h1H438v14.4h-12.5h-1v1v25.1
				h-18.2v-67L424.5,3.4 M365.6,24.3c17.4,0,28.2,5.5,28.2,14.4c0,6.9-6.6,11.9-18.2,13.8l-0.8,0.1v0.9V57v1.1l1.1-0.1
				c8.3-0.5,16.5-1.2,24.4-2.1l1.2,10.2c-23,3.9-47.7,4.3-69.2,4.3l-1.7-11.5c7.6,0,16.2,0,25-0.3h1v-1v-4.1v-0.9l-0.9-0.1
				c-11.7-1.7-18.4-6.7-18.4-13.8C337.4,29.8,348.2,24.3,365.6,24.3 M365.6,42.9c5.5,0,11.1-0.5,11.1-4.2c0-3.9-5.7-4.2-11.1-4.2
				s-11.1,0.3-11.1,4.2C354.5,42.4,360.1,42.9,365.6,42.9 M424.5,75.9V102h-59.4h-1v1v3.1v1h1h63.1v11.1h-82.1V91.8h59.4h1v-1v-2.9
				v-1h-1H346v-11H424.5 M375.9,1.6h-20.2V9h-23v13.1h65.8V8.9h-22.6V1.6L375.9,1.6z M425.5,2.4h-20.2v69h20.2V45.3H439V28.9h-13.5
				V2.4L425.5,2.4z M365.6,23.3c-17.9,0-29.2,5.8-29.2,15.4c0,7.8,7.2,13,19.2,14.8v4.1c-9.2,0.2-18.2,0.2-26.1,0.2l2,13.5
				c20.2,0,46.9-0.2,71.1-4.5l-1.4-12.1c-8.2,1-16.8,1.8-25.4,2.2v-3.5c11.8-1.9,19-7.1,19-14.8C394.9,29.1,383.5,23.3,365.6,23.3
				L365.6,23.3z M365.6,41.9c-6.6,0-10.1-0.9-10.1-3.2c0-2.5,3.5-3.2,10.1-3.2s10.1,0.8,10.1,3.2S372.2,41.9,365.6,41.9L365.6,41.9z
				 M425.5,74.9H345V88h60.5v2.9h-60.4v28.4h84.1v-13.1h-64.1v-3.1h60.4V74.9L425.5,74.9z"/>
		</g>
		<g>
			<path class="st0" d="M539.4,8.3v13.8H479h-1v1v9.8v1h1h60.9v13.7h-30.2h-1v1v7.6v1h1h42.1v13.9H447.4V57.2h42h1v-1v-7.6v-1h-1
				h-29.5V8.3H539.4 M499,77.3c25.1,0,40.1,7.9,40.1,21s-15,20.9-40.1,20.9c-25,0-40-7.8-40-20.9S473.9,77.3,499,77.3 M499,105.9
				c13,0,21.6-1.3,21.6-7.6c0-6.8-10.4-7.8-21.6-7.8c-15.3,0-21.5,2.2-21.5,7.8C477.5,104.6,486.1,105.9,499,105.9 M540.4,7.3h-81.5
				v41.3h30.5v7.6h-43v15.9h106.4V56.2h-43.1v-7.6h31.2V32.8H479V23h61.4V7.3L540.4,7.3z M499,76.3c-25.4,0-41,8-41,22
				c0,13.9,15.6,21.9,41,21.9c25.5,0,41.1-8,41.1-21.9C540.1,84.3,524.5,76.3,499,76.3L499,76.3z M499,104.9
				c-14.2,0-20.5-1.8-20.5-6.6s6.2-6.8,20.5-6.8c14.2,0,20.6,1.9,20.6,6.8S513.2,104.9,499,104.9L499,104.9z"/>
		</g>
	</g>
</g>
</svg>
