<?xml version="1.0" encoding="utf-8"?>
<!-- Generator: Adobe Illustrator 25.0.0, SVG Export Plug-In . SVG Version: 6.00 Build 0)  -->
<svg version="1.1" id="레이어_1" xmlns="http://www.w3.org/2000/svg" xmlns:xlink="http://www.w3.org/1999/xlink" x="0px"
	 y="0px" viewBox="0 0 606.6 122.9" style="enable-background:new 0 0 606.6 122.9;" xml:space="preserve">
<style type="text/css">
	.st0{fill:#F2E5D2;}
</style>
<g>
	<g>
		<path class="st0" d="M58.1,28.8H2.5V13.4h17.9V3.9h19.9v9.5h17.9v15.4H58.1z M30.5,72.7C15.7,72.7,5,64.1,5,52.1
			C5,40,15.8,31.3,30.5,31.3S56,39.9,56,52.1C56,64.1,45.2,72.7,30.5,72.7z M104.2,98.2c0,13.9-15.6,21.9-41,21.9
			c-25.5,0-41.1-8-41.1-21.9c0-14,15.6-22,41.1-22C88.6,76.2,104.2,84.2,104.2,98.2z M30.5,58.4c4.5,0,7.6-2.1,7.6-6.4
			c0-4.4-3.1-6.5-7.6-6.5s-7.6,2.1-7.6,6.5C22.9,56.3,26,58.4,30.5,58.4z M84,98.2c0-5.1-6.5-7-20.8-7c-14.4,0-20.9,1.9-20.9,7
			c0,5,6.5,6.9,20.9,6.9C77.5,105.1,84,103.2,84,98.2z M79.4,71.9H60.6V4.7h18.8v25.1h5.1V2.4h19.1v73H84.5V45.9h-5.1V71.9z"/>
		<path class="st0" d="M163.4,25.8c0,21.4,5.6,42.6,25.6,52.4l-12.1,16c-11.6-5.9-19.1-15.9-23.8-28.2
			c-4.9,13.4-13.2,24.4-25.9,30.4l-12-16.4c21.1-9.6,27.8-32,27.8-54.1V11.1h20.4V25.8z M226.6,62.9h-15.8v56.9h-20.2V2.6h20.2v43.9
			h15.8V62.9z"/>
		<path class="st0" d="M283.2,13.6h11.6l-22,99.5h-11.6L283.2,13.6z"/>
		<path class="st0" d="M402.6,66.8c-24.2,4.2-50.9,4.5-71.1,4.5l-2-13.5c7.9,0,16.9,0,26.1-0.2v-4.1c-12-1.8-19.2-7-19.2-14.8
			c0-9.6,11.4-15.4,29.2-15.4s29.2,5.8,29.2,15.4c0,7.6-7.2,12.9-19,14.8V57c8.6-0.5,17.1-1.2,25.4-2.2L402.6,66.8z M398.5,22.1
			h-65.9V8.9h23V1.6h20.2V9h22.7V22.1z M365.1,106.2h64.1v13.1h-84.1V90.9h60.4V88H345V74.9h80.5V103h-60.4V106.2z M355.5,38.7
			c0,2.4,3.5,3.2,10.1,3.2s10.1-0.9,10.1-3.2c0-2.5-3.5-3.2-10.1-3.2S355.5,36.2,355.5,38.7z M439,28.9v16.4h-13.5v26.1h-20.2v-69
			h20.2v26.5C425.5,28.9,439,28.9,439,28.9z"/>
		<path class="st0" d="M552.7,56.2v15.9H446.4V56.2h43v-7.6h-30.5V7.3h81.5v15.8H479v9.8h61.9v15.7h-31.2v7.6H552.7z M540.1,98.3
			c0,13.9-15.6,21.9-41.1,21.9c-25.4,0-41-8-41-21.9c0-14,15.6-22,41-22C524.5,76.3,540.1,84.3,540.1,98.3z M519.6,98.3
			c0-4.9-6.4-6.8-20.6-6.8c-14.2,0-20.5,1.9-20.5,6.8s6.2,6.6,20.5,6.6C513.2,104.9,519.6,103.2,519.6,98.3z"/>
	</g>
</g>
</svg>
