<?xml version="1.0" encoding="utf-8"?>
<!-- Generator: Adobe Illustrator 25.0.0, SVG Export Plug-In . SVG Version: 6.00 Build 0)  -->
<svg version="1.1" id="레이어_1" xmlns="http://www.w3.org/2000/svg" xmlns:xlink="http://www.w3.org/1999/xlink" x="0px"
	 y="0px" viewBox="0 0 606.6 122.9" style="enable-background:new 0 0 606.6 122.9;" xml:space="preserve">
<style type="text/css">
	.st0{display:none;}
	.st1{display:inline;}
	.st2{fill:#F2E5D2;}
	.st3{fill:#333333;}
</style>
<g class="st0">
	<g class="st1">
		<g>
			<path class="st2" d="M55.3,7.1c25.2,0,42.1,10.3,42.1,25.6c0,15.4-16.9,25.8-42.1,25.8S13.1,48.1,13.1,32.7
				C13.1,17.4,30.1,7.1,55.3,7.1 M55.3,44.6c19.3,0,23.4-6.5,23.4-11.9s-4.1-11.8-23.4-11.8c-15.1,0-23.4,4.2-23.4,11.8
				C31.9,38.1,35.9,44.6,55.3,44.6 M107.6,68.2v14.1H65.3h-1v1v35.6H46V83.3v-1h-1H3.5V68.2H107.6 M55.3,6.1
				c-25.4,0-43.2,10.5-43.2,26.6c0,16.4,17.8,26.8,43.1,26.8s43.1-10.4,43.1-26.8C98.4,16.6,80.6,6.1,55.3,6.1L55.3,6.1z M55.3,43.6
				c-13.9,0-22.4-3.5-22.4-10.9c0-7.2,8.5-10.8,22.4-10.8c14,0,22.4,3.5,22.4,10.8C77.6,40.1,69.3,43.6,55.3,43.6L55.3,43.6z
				 M108.6,67.2H2.5v16.1H45v36.6h20.2V83.3h43.4V67.2L108.6,67.2z"/>
		</g>
		<g>
			<path class="st2" d="M214.9,3.3v115.9h-18.2V3.3H214.9 M178.4,12.8v45.3h-34.2h-1v1V77v1h1c18.2-0.3,31.1-1.3,44.1-3.6l1.8,14.3
				c-17.2,3.1-34.2,3.7-55.8,3.7h-9.8v-48h34.2h1v-1V27.7v-1h-1h-34.4V12.8H178.4 M215.9,2.3h-20.2v117.9h20.2V2.3L215.9,2.3z
				 M179.4,11.8h-56v15.9h35.4v15.6h-35.2v50h10.8c22,0,39.1-0.6,56.9-3.9l-2-16.2c-14.6,2.6-28.2,3.5-45,3.8V59.1h35.2L179.4,11.8
				L179.4,11.8z"/>
		</g>
		<g>
			<path class="st2" d="M330.6,3.3v115.8h-18.2V3.3H330.6 M269.9,10.9c18.2,0,31.9,12.3,31.9,28.5c0,16.3-13.7,28.6-31.9,28.6
				c-18.1,0-31.8-12.3-31.8-28.6C238.1,23.2,251.8,10.9,269.9,10.9 M269.9,52.9c8.7,0,14.1-5.2,14.1-13.5c0-8.1-5.5-13.4-14.1-13.4
				c-8.5,0-14,5.2-14,13.4S261.4,52.9,269.9,52.9 M304.7,78.7l1.2,12.4c-23,4.5-47.1,5.2-69.9,5.2l-2-14.1
				C256.5,82.2,282.2,81.7,304.7,78.7 M331.6,2.3h-20.2v117.8h20.2V2.3L331.6,2.3z M269.9,9.9c-18.4,0-32.8,12.5-32.8,29.5
				c0,17.1,14.4,29.6,32.8,29.6c18.5,0,32.9-12.5,32.9-29.6C302.8,22.4,288.4,9.9,269.9,9.9L269.9,9.9z M269.9,51.9
				c-7.2,0-13-4.1-13-12.5c0-8.2,5.8-12.4,13-12.4c7.4,0,13.1,4.1,13.1,12.4C283,47.8,277.3,51.9,269.9,51.9L269.9,51.9z
				 M305.6,77.6c-24.4,3.4-52.5,3.6-72.8,3.6l2.2,16.1c20,0,46.9-0.4,71.9-5.4L305.6,77.6L305.6,77.6z"/>
		</g>
		<g>
			<path class="st2" d="M474.4,3.4v30.2v1h1h13.8V49h-13.8h-1v1v34.6h-18.2V3.4H474.4 M442.6,12.1c-0.2,15.6-4.7,28.8-13.5,39.2
				c-8.9,10.5-22.1,18.2-39.3,22.9l-7.3-13.9c29.4-8,38.1-22.3,40.1-33.1l0.2-1.2h-1.2h-34.4V12.1H442.6 M417.4,78.2v24v1h1h59.4
				v13.9h-78.6V78.2H417.4 M475.4,2.4h-20.2v83.2h20.2V50.1h14.8V33.7h-14.8V2.4L475.4,2.4z M443.6,11.1h-57.4V27h35.4
				C418.9,41.2,406,53.1,381,59.6l8.2,15.8C425,65.7,443.6,43.8,443.6,11.1L443.6,11.1z M418.4,77.2h-20.2v40.9h80.6v-15.9h-60.4
				V77.2L418.4,77.2z"/>
		</g>
		<g>
			<path class="st2" d="M593.1,8.7v13.8H566h-1.7l0.8,1.5c2.9,5.3,11.1,12,33.3,14l-6,13.7c-25.8-2.1-36.6-11.7-41.1-19.5l-0.9-1.5
				l-0.9,1.5c-4.4,7.7-15.1,17.3-40.9,19.4l-6-13.7c22-1.9,30.2-8.7,33.1-14l0.8-1.5h-1.6H508V8.7H593.1 M602.6,56.7v13.8H498.4
				V56.7H602.6 M550.3,76.9c25,0,40,7.9,40,21s-15,21-40,21c-25.1,0-40.1-7.9-40.1-21S525.1,76.9,550.3,76.9 M550.3,105.6
				c12.9,0,21.5-1.3,21.5-7.6s-8.6-7.6-21.5-7.6c-13,0-21.6,1.3-21.6,7.6S537.3,105.6,550.3,105.6 M594.1,7.7H507v15.8h27.9
				c-3.2,5.9-12.5,12-33.8,13.6l6.9,15.6c23.2-1.8,36.5-9.8,42.4-20c6,10.2,19.4,18.2,42.6,20l6.9-15.6
				c-21.4-1.8-30.6-7.8-33.9-13.6h28.1V7.7L594.1,7.7z M603.6,55.7H497.4v15.8h106.2V55.7L603.6,55.7z M550.3,75.9
				c-25.5,0-41.1,8-41.1,22s15.6,22,41.1,22c25.4,0,41-8,41-22S575.6,75.9,550.3,75.9L550.3,75.9z M550.3,104.6
				c-14.2,0-20.6-1.8-20.6-6.6s6.4-6.6,20.6-6.6c14.1,0,20.5,1.8,20.5,6.6S564.4,104.6,550.3,104.6L550.3,104.6z"/>
		</g>
	</g>
</g>
<g>
	<g>
		<g>
			<path class="st3" d="M109.1,83.1H65.8v36.6H45.5V83.1H3V66.9h106.1V83.1z M12.6,32.4c0-16.1,17.8-26.6,43.2-26.6
				s43.1,10.5,43.1,26.6c0,16.4-17.8,26.8-43.1,26.8S12.6,48.8,12.6,32.4z M33.4,32.4c0,7.4,8.5,10.9,22.4,10.9
				c14,0,22.4-3.5,22.4-10.9c0-7.2-8.4-10.8-22.4-10.8C41.9,21.6,33.4,25.1,33.4,32.4z"/>
		</g>
		<g>
			<path class="st3" d="M144.6,76.7c16.8-0.2,30.4-1.1,45-3.8l2,16.2c-17.8,3.2-34.9,3.9-56.9,3.9h-10.8V43h35.2V27.4h-35.4V11.5h56
				v47.3h-35.2L144.6,76.7C144.5,76.6,144.6,76.6,144.6,76.7z M216.4,2v118h-20.2V2H216.4z"/>
		</g>
		<g>
			<path class="st3" d="M233.4,80.9c20.2,0,48.4-0.2,72.8-3.6l1.4,14.4c-25,5-51.9,5.4-71.9,5.4L233.4,80.9z M303.2,39.1
				c0,17.1-14.4,29.6-32.9,29.6c-18.4,0-32.8-12.5-32.8-29.6c0-17,14.4-29.5,32.8-29.5C288.9,9.6,303.2,22.1,303.2,39.1z
				 M257.4,39.1c0,8.4,5.8,12.5,13,12.5c7.4,0,13.1-4.1,13.1-12.5c0-8.2-5.8-12.4-13.1-12.4C263.1,26.8,257.4,30.9,257.4,39.1z
				 M332.1,2v117.8h-20.2V2H332.1z"/>
		</g>
		<g>
			<path class="st3" d="M444.1,10.8c0,32.8-18.6,54.6-54.4,64.2l-8.2-15.7c25-6.5,37.9-18.4,40.6-32.6h-35.4V10.8H444.1z
				 M418.9,101.9h60.4v15.9h-80.6V76.9h20.2V101.9z M490.6,33.4v16.4h-14.8v35.5h-20.2V2.1h20.2v31.2L490.6,33.4L490.6,33.4z"/>
		</g>
		<g>
			<path class="st3" d="M604,55.4v15.8H497.9V55.4H604z M501.6,36.8c21.2-1.6,30.5-7.8,33.8-13.6h-27.9V7.4h87.1v15.8h-28.1
				c3.2,5.9,12.5,11.9,33.9,13.6l-6.9,15.6c-23.2-1.8-36.6-9.8-42.6-20c-5.9,10.2-19.1,18.2-42.4,20L501.6,36.8z M591.8,97.7
				c0,14-15.6,22-41,22c-25.5,0-41.1-8-41.1-22s15.6-22,41.1-22C576,75.7,591.8,83.7,591.8,97.7z M571.2,97.7
				c0-4.9-6.4-6.6-20.5-6.6c-14.2,0-20.6,1.8-20.6,6.6s6.4,6.6,20.6,6.6C564.9,104.3,571.2,102.6,571.2,97.7z"/>
		</g>
	</g>
</g>
</svg>
