<?xml version="1.0" encoding="utf-8"?>
<!-- Generator: Adobe Illustrator 25.0.0, SVG Export Plug-In . SVG Version: 6.00 Build 0)  -->
<svg version="1.1" id="레이어_1" xmlns="http://www.w3.org/2000/svg" xmlns:xlink="http://www.w3.org/1999/xlink" x="0px"
	 y="0px" viewBox="0 0 50 50" style="enable-background:new 0 0 50 50;" xml:space="preserve">
<style type="text/css">
	.st0{fill:#333333;}
</style>
<g>
	<path class="st0" d="M36.6,17.7H13.4c-0.6,0-1-0.4-1-1s0.4-1,1-1h23.3c0.6,0,1,0.4,1,1S37.2,17.7,36.6,17.7z"/>
</g>
<g>
	<path class="st0" d="M36.6,26H13.4c-0.6,0-1-0.4-1-1c0-0.6,0.4-1,1-1h23.3c0.6,0,1,0.4,1,1C37.6,25.6,37.2,26,36.6,26z"/>
</g>
<g>
	<path class="st0" d="M36.6,34.3H13.4c-0.6,0-1-0.4-1-1s0.4-1,1-1h23.3c0.6,0,1,0.4,1,1S37.2,34.3,36.6,34.3z"/>
</g>
</svg>
