<?xml version="1.0" encoding="utf-8"?>
<!-- Generator: Adobe Illustrator 25.0.0, SVG Export Plug-In . SVG Version: 6.00 Build 0)  -->
<svg version="1.1" id="레이어_1" xmlns="http://www.w3.org/2000/svg" xmlns:xlink="http://www.w3.org/1999/xlink" x="0px"
	 y="0px" viewBox="0 0 50 50" style="enable-background:new 0 0 50 50;" xml:space="preserve">
<style type="text/css">
	.st0{fill:#333333;}
</style>
<path class="st0" d="M26.7,25l10.5-7.5c0.5-0.3,0.6-0.9,0.2-1.4c-0.3-0.4-0.9-0.6-1.4-0.2L25,23.8l-11.1-7.9
	c-0.5-0.3-1.1-0.2-1.4,0.2c-0.3,0.4-0.2,1.1,0.2,1.4L23.3,25l-10.5,7.5c-0.4,0.3-0.6,0.9-0.2,1.4c0.2,0.3,0.5,0.4,0.8,0.4
	c0.2,0,0.4-0.1,0.6-0.2L25,26.2l11.1,7.9c0.2,0.1,0.4,0.2,0.6,0.2c0.3,0,0.6-0.1,0.8-0.4c0.3-0.4,0.2-1.1-0.2-1.4L26.7,25z"/>
</svg>
