<?xml version="1.0" encoding="utf-8"?>
<!-- Generator: Adobe Illustrator 25.0.0, SVG Export Plug-In . SVG Version: 6.00 Build 0)  -->
<svg version="1.1" id="레이어_1" xmlns="http://www.w3.org/2000/svg" xmlns:xlink="http://www.w3.org/1999/xlink" x="0px"
	 y="0px" viewBox="0 0 50 50" style="enable-background:new 0 0 50 50;" xml:space="preserve">
<style type="text/css">
	.st0{display:none;}
	.st1{display:inline;}
	.st2{fill:#333333;}
	.st3{fill:#0099A8;}
	.st4{fill:#002F86;}
</style>
<g class="st0">
	<g class="st1">
		<path class="st2" d="M17,41.4c0,0-10-8.4-12.1-18.7C4.3,24.9,2.8,34.2,17,41.4"/>
		<path class="st2" d="M8.3,17.7c-3.9,15.4,16,24.5,16,24.5S11.2,35.4,8.3,17.7"/>
		<path class="st2" d="M9.8,40.5c0,0-6.3-4.7-8.4-12.9C1.1,30.8,1.1,35.2,9.8,40.5"/>
		<g>
			<g>
				<path class="st2" d="M44.9,25c0.3,0.4,0.5,0.9,0.5,1.4l-1.3-0.5c-0.4-0.2-0.8-0.3-1.2-0.3c-0.1,0-0.3,0-0.4,0
					c-0.8,0.1-1.4,1.2-1.4,1.2c-2,3.1-5.5,5.1-9.5,5.1h-2.8c-1.6,0-3,1.1-3.4,2.5l0,0l-1.1-0.7c0,0,1.9-1.4,3.4-2.5
					c0.2-0.1-4.4,1.9-4.4,1.9l-4.5-2.8l8.8-2.9c-2.9-4.7-7.6-8.2-13.2-9.3c2.3-0.7,4.7-1.1,7.2-1.1c5.2,0,10.1,1.7,14,4.5
					c1.6-0.4,3.4-0.5,5.1-0.5C43,20.9,44.8,22.7,44.9,25z"/>
			</g>
		</g>
		<path class="st2" d="M42.9,19.9c1-3.1,3.2-5.6,6.1-7.1c-0.4,0-0.9-0.1-1.3-0.1c-5.1,0-9.5,2.8-11.9,6.9c1-0.6,2.1-1,3.4-1
			C40.6,18.7,41.9,19.1,42.9,19.9z"/>
	</g>
</g>
<g>
	<path class="st3" d="M17,41.4c0,0-10-8.4-12.1-18.7C4.3,24.9,2.8,34.2,17,41.4"/>
	<path class="st3" d="M8.3,17.7c-3.9,15.4,16,24.5,16,24.5S11.2,35.4,8.3,17.7"/>
	<path class="st3" d="M9.8,40.5c0,0-6.3-4.7-8.4-12.9C1.1,30.8,1.1,35.2,9.8,40.5"/>
	<g>
		<g>
			<path class="st4" d="M44.9,25c0.3,0.4,0.5,0.9,0.5,1.4l-1.3-0.5c-0.4-0.2-0.8-0.3-1.2-0.3c-0.1,0-0.3,0-0.4,0
				c-0.8,0.1-1.4,1.2-1.4,1.2c-2,3.1-5.5,5.1-9.5,5.1h-2.8c-1.6,0-3,1.1-3.4,2.5l0,0l-1.1-0.7c0,0,1.9-1.4,3.4-2.5
				c0.2-0.1-4.4,1.9-4.4,1.9l-4.5-2.8l8.8-2.9c-2.9-4.7-7.6-8.2-13.2-9.3c2.3-0.7,4.7-1.1,7.2-1.1c5.2,0,10.1,1.7,14,4.5
				c1.6-0.4,3.4-0.5,5.1-0.5C43,20.9,44.8,22.7,44.9,25z"/>
		</g>
	</g>
	<path class="st3" d="M42.9,19.9c1-3.1,3.2-5.6,6.1-7.1c-0.4,0-0.9-0.1-1.3-0.1c-5.1,0-9.5,2.8-11.9,6.9c1-0.6,2.1-1,3.4-1
		C40.6,18.7,41.9,19.1,42.9,19.9z"/>
</g>
</svg>
